<?xml version="1.0" encoding="UTF-8"?>
<svg xmlns="http://www.w3.org/2000/svg" version="1.1" viewBox="0 0 1080 1080">
  <defs>
    <style>
      .cls-1 {
        fill: #434343;
      }

      .cls-2 {
        fill: #6e7275;
      }
    </style>
  </defs>
  <!-- Generator: Adobe Illustrator 28.6.0, SVG Export Plug-In . SVG Version: 1.2.0 Build 709)  -->
  <g>
    <g id="Capa_1">
      <g>
        <path class="cls-1" d="M288,452.5v540.7c-7.4-4-14-7-20-10.7-73.8-45.8-133-105.9-176.7-181-55.9-95.9-27.7-214,66.3-272.9,41.5-26.1,84.7-49.5,130.4-76Z"/>
        <path class="cls-1" d="M270.6,96.5c89.3-52.4,181.3-77.6,280-74,103.9,3.8,186.4,89.2,188.8,193.2,1.1,49.1.2,98.3.2,151.6-157.1-90.7-311.4-179.9-468.9-270.8Z"/>
        <path class="cls-1" d="M1058.5,535.5c-3.5,33.3-5.7,66.8-10.9,99.8-9.2,57.4-29.4,111.1-58.3,161.5-56.5,98.4-174.1,132.3-273.5,78.1-42-22.9-82.9-47.6-128.2-73.8,156.4-90.4,310.5-179.4,464.6-268.4,2.1.9,4.2,1.8,6.3,2.7Z"/>
        <path class="cls-2" d="M791.5,90.1c51.3,27.5,94.5,61.9,130.6,104.2,22.4,26.2,43.5,54.2,61.2,83.8,59.9,100.5,28.1,219.4-72.8,278.5-38.8,22.7-77.8,44.9-119,68.6V90.1Z"/>
        <path class="cls-2" d="M487,279.6c-155.5,89.9-307.4,177.7-465.6,269,2.4-32.5,2.8-60.3,6.9-87.5,9.7-64.2,30.8-124.7,63.9-180.8,55.3-93.5,171.9-126.1,267.4-73.9,41.7,22.8,82.4,47.3,127.3,73.2Z"/>
        <path class="cls-2" d="M339.5,715.9c156.1,90.2,308.5,178.2,463.6,267.8-47.5,30.1-95.7,48.7-146.4,59.7-56.3,12.3-113.1,21.7-170.6,6.7-84.7-22-146-100.2-146.6-187.4-.3-47.5,0-95.1,0-146.8Z"/>
      </g>
    </g>
  </g>
</svg>